<?xml version="1.0" encoding="utf-8"?>
<!-- Generator: Adobe Illustrator 24.0.0, SVG Export Plug-In . SVG Version: 6.00 Build 0)  -->
<svg version="1.1" id="Layer_1" xmlns="http://www.w3.org/2000/svg" xmlns:xlink="http://www.w3.org/1999/xlink" x="0px" y="0px"
	 viewBox="0 0 512 512" style="enable-background:new 0 0 512 512;" xml:space="preserve">
<style type="text/css">
	.st0{fill:#333333;}
	.st1{fill:#00A0C2;}
</style>
<path class="st0" d="M416,60.7L290.6,16.5c-0.8-0.3-1.7-0.5-2.6-0.5H168c-0.9,0-1.7,0.2-2.6,0.4L80,44.9V32c0-4.4-3.6-8-8-8H24
	c-4.4,0-8,3.6-8,8v176c0,4.4,3.6,8,8,8h48c4.4,0,8-3.6,8-8v-16h48c0.8,0,1.5-0.1,2.2-0.3L254.8,155C265,152,272,142.6,272,132v-4
	c0-13.2-10.8-24-24-24h-65.1l43.2-24h60.8l114.3,33.7c7.3,2.1,15.1,0.7,21.2-3.8c6.1-4.5,9.6-11.6,9.6-19.2v-7.3
	C432,73.2,425.6,64.1,416,60.7L416,60.7z M64,200H32V40h32V200z M416,90.6c0,4.4-3.6,8-8,8c-0.8,0-1.5-0.1-2.2-0.3l-115.5-34
	c-0.7-0.2-1.5-0.3-2.2-0.3h-64c-1.4,0-2.7,0.3-3.9,1l-72,40c-3.8,2.2-5.2,7.1-3,10.9c1.4,2.5,4.1,4,6.9,4.1h96c4.4,0,8,3.6,8,8v4
	c0,3.5-2.4,6.7-5.8,7.7L126.9,176H80V61.8L169.3,32h117.4l124,43.8c3.2,1.1,5.4,4.2,5.4,7.6V90.6z"/>
<path class="st0" d="M488,296h-48c-4.4,0-8,3.6-8,8v16h-48c-0.8,0-1.5,0.1-2.2,0.3L257.2,357C247,360,240,369.4,240,380v4
	c0,13.2,10.8,24,24,24h65.1l-43.2,24h-60.8l-114.3-33.7c-7.3-2.1-15.1-0.7-21.2,3.8c-6.1,4.5-9.6,11.6-9.6,19.2v7.3
	c0,10.2,6.4,19.2,16,22.6l125.4,44.2c0.8,0.3,1.7,0.5,2.6,0.5h120c0.9,0,1.7-0.2,2.6-0.4l85.4-28.5V480c0,4.4,3.6,8,8,8h48
	c4.4,0,8-3.6,8-8V304C496,299.6,492.4,296,488,296L488,296z M432,450.2L342.7,480H225.4l-124-43.8c-3.2-1.1-5.4-4.2-5.4-7.6v-7.3
	c0-4.4,3.6-8,8-8c0.8,0,1.5,0.1,2.2,0.3l115.5,34c0.7,0.2,1.5,0.3,2.2,0.3h64c1.4,0,2.7-0.3,3.9-1l72-40c3.8-2.2,5.2-7.1,3-10.9
	c-1.4-2.5-4.1-4-6.9-4.1h-96c-4.4,0-8-3.6-8-8v-4c0-3.5,2.4-6.7,5.8-7.7L385.1,336H432V450.2z M480,472h-32V312h32V472z"/>
<path class="st1" d="M296,184c-16.6-0.2-32,8.8-40,23.4c-8-14.6-23.4-23.6-40-23.4c-26.5,0-48,21.5-48,48v8
	c0,60.2,81,101.4,84.4,103.1c2.3,1.2,4.9,1.2,7.2,0C263,341.4,344,300.2,344,240v-8C344,205.5,322.5,184,296,184z M328,240
	c0,43.9-57,78.6-72,87c-15-8.4-72-43-72-87v-8c0-17.7,14.3-32,32-32c19.1,0,32,16.1,32,40c0,4.4,3.6,8,8,8s8-3.6,8-8
	c0-23.9,12.9-40,32-40c17.7,0,32,14.3,32,32V240z"/>
<path class="st1" d="M360,248h16v16h-16V248z"/>
<path class="st1" d="M392,248h48v16h-48V248z"/>
<path class="st1" d="M323.8,176.8l11.3-11.3l11.3,11.3l-11.3,11.3L323.8,176.8z"/>
<path class="st1" d="M346.5,154.2l33.9-33.9l11.3,11.3l-33.9,33.9L346.5,154.2z"/>
<path class="st1" d="M136,248h16v16h-16V248z"/>
<path class="st1" d="M72,248h48v16H72V248z"/>
<path class="st1" d="M165.4,335.2l11.3-11.3l11.3,11.3l-11.3,11.3L165.4,335.2z"/>
<path class="st1" d="M120.2,380.4l33.9-33.9l11.3,11.3l-33.9,33.9L120.2,380.4z"/>
<path class="st1" d="M253,221.2L234.5,200l-33.8-6.2L181.2,216l-4.5,25.8l7.2,32.2l26.2,22.1c0,0,14.2,13.4,15.8,16
	c1.6,2.6,21.9,15,21.9,15l8,6.1l32-21l29.3-22.8l17.8-30.1c0,0-1.1-23.7,0-25.3c1.1-1.6-2-19-4.1-21.6s-17.4-16.4-17.4-16.4
	l-25.6-2.1L256.1,218L253,221.2z"/>
</svg>
